<svg xmlns="http://www.w3.org/2000/svg" viewBox="0 0 800 1000" width="800" height="1000">
<defs>
<linearGradient id="bg" x1="0" y1="0" x2="0" y2="1">
<stop offset="0" stop-color="#efece7"/>
<stop offset="1" stop-color="#e0dbd2"/>
</linearGradient>
<linearGradient id="table" x1="0" y1="0" x2="0" y2="1">
<stop offset="0" stop-color="#cdb18a"/>
<stop offset="1" stop-color="#ad8d64"/>
</linearGradient>
<radialGradient id="glow" cx="0.5" cy="0.42" r="0.55">
<stop offset="0" stop-color="#ffffff" stop-opacity="0.5"/>
<stop offset="1" stop-color="#ffffff" stop-opacity="0"/>
</radialGradient>
<radialGradient id="vignette" cx="0.5" cy="0.46" r="0.85">
<stop offset="0.62" stop-color="#2b251d" stop-opacity="0"/>
<stop offset="1" stop-color="#2b251d" stop-opacity="0.11"/>
</radialGradient>
<filter id="soft" x="-60%" y="-60%" width="220%" height="220%"><feGaussianBlur in="SourceGraphic" stdDeviation="18"/></filter>
<filter id="softer" x="-60%" y="-60%" width="220%" height="220%"><feGaussianBlur in="SourceGraphic" stdDeviation="34"/></filter>
</defs>
<rect width="800" height="1000" fill="url(#bg)"/>
<rect width="800" height="1000" fill="url(#glow)"/>
<rect x="0" y="768" width="800" height="1000" fill="url(#table)"/>
<rect x="0" y="768" width="800" height="3" fill="#ffffff" opacity="0.28"/>
<g opacity="0.9"><ellipse cx="122" cy="786" rx="52" ry="4.42" fill="#2b231a" opacity="0.18" filter="url(#soft)"/><ellipse cx="122" cy="786" rx="32.24" ry="2.6" fill="#241d15" opacity="0.144" filter="url(#softer)"/><path d="M92 686 q-10 50 8 82 q8 14 22 14 q14 0 22 -14 q18 -32 8 -82 q-6 -22 -30 -22 q-24 0 -30 22 Z" fill="#cfc5b2"/><path d="M122 670 q-6 -70 26 -118" fill="none" stroke="#7e8068" stroke-width="3.5" stroke-linecap="round"/><path d="M122 670 q2 -58 -18 -98" fill="none" stroke="#7e8068" stroke-width="3" stroke-linecap="round"/><ellipse cx="148" cy="552" rx="7" ry="16" fill="#7e8068" transform="rotate(24 148 552)"/><ellipse cx="136" cy="594" rx="6" ry="14" fill="#7e8068" transform="rotate(-18 136 594)" opacity="0.85"/><ellipse cx="104" cy="576" rx="6" ry="14" fill="#7e8068" transform="rotate(-30 104 576)" opacity="0.9"/></g>
<ellipse cx="400" cy="784" rx="266.6" ry="22.661" fill="#2b231a" opacity="0.32" filter="url(#soft)"/><ellipse cx="400" cy="784" rx="165.292" ry="13.33" fill="#241d15" opacity="0.256" filter="url(#softer)"/><rect x="609" y="174" width="14" height="606" rx="2" fill="#f6f1e3"/><rect x="617" y="180" width="4" height="594" fill="#ddd5c0"/><rect x="185" y="164" width="430" height="620" rx="5" fill="#2e2a26"/><rect x="185" y="164" width="430" height="620" rx="5" fill="url(#glow)" opacity="0.35"/><rect x="207" y="164" width="3" height="620" fill="#000000" opacity="0.12"/><rect x="211" y="164" width="2" height="620" fill="#ffffff" opacity="0.18"/><circle cx="410" cy="272" r="3.5" fill="#c9b694"/><line x1="370" y1="272" x2="392" y2="272" stroke="#c9b694" stroke-width="1.5"/><line x1="428" y1="272" x2="450" y2="272" stroke="#c9b694" stroke-width="1.5"/><text x="410" y="342" text-anchor="middle" font-family="Georgia, 'Times New Roman', serif" font-size="38" font-weight="400" letter-spacing="4" fill="#ece5d6">MARGINS</text><line x1="376" y1="380" x2="444" y2="380" stroke="#c9b694" stroke-width="1.5"/><text x="410" y="688" text-anchor="middle" font-family="'Helvetica Neue', Helvetica, Arial, sans-serif" font-size="15" font-weight="500" letter-spacing="3.5" fill="#ece5d6">IRIS DELAUNAY</text><text x="410" y="732" text-anchor="middle" font-family="'Helvetica Neue', Helvetica, Arial, sans-serif" font-size="10" font-weight="600" letter-spacing="3" fill="#c9b694">CATALOG PRESS</text>
<rect width="800" height="1000" fill="url(#vignette)"/>
</svg>