<svg xmlns="http://www.w3.org/2000/svg" viewBox="0 0 800 1000" width="800" height="1000">
<defs>
<linearGradient id="bg" x1="0" y1="0" x2="0" y2="1">
<stop offset="0" stop-color="#f3eee4"/>
<stop offset="1" stop-color="#e6dcc8"/>
</linearGradient>
<linearGradient id="table" x1="0" y1="0" x2="0" y2="1">
<stop offset="0" stop-color="#cfb38c"/>
<stop offset="1" stop-color="#af8f64"/>
</linearGradient>
<radialGradient id="glow" cx="0.5" cy="0.42" r="0.55">
<stop offset="0" stop-color="#ffffff" stop-opacity="0.5"/>
<stop offset="1" stop-color="#ffffff" stop-opacity="0"/>
</radialGradient>
<radialGradient id="vignette" cx="0.5" cy="0.46" r="0.85">
<stop offset="0.62" stop-color="#2b251d" stop-opacity="0"/>
<stop offset="1" stop-color="#2b251d" stop-opacity="0.11"/>
</radialGradient>
<filter id="soft" x="-60%" y="-60%" width="220%" height="220%"><feGaussianBlur in="SourceGraphic" stdDeviation="18"/></filter>
<filter id="softer" x="-60%" y="-60%" width="220%" height="220%"><feGaussianBlur in="SourceGraphic" stdDeviation="34"/></filter>
</defs>
<rect width="800" height="1000" fill="url(#bg)"/>
<rect width="800" height="1000" fill="url(#glow)"/>
<rect x="0" y="768" width="800" height="1000" fill="url(#table)"/>
<rect x="0" y="768" width="800" height="3" fill="#ffffff" opacity="0.28"/>
<g opacity="0.9"><ellipse cx="122" cy="786" rx="52" ry="4.42" fill="#2b231a" opacity="0.18" filter="url(#soft)"/><ellipse cx="122" cy="786" rx="32.24" ry="2.6" fill="#241d15" opacity="0.144" filter="url(#softer)"/><path d="M92 686 q-10 50 8 82 q8 14 22 14 q14 0 22 -14 q18 -32 8 -82 q-6 -22 -30 -22 q-24 0 -30 22 Z" fill="#cfc5b2"/><path d="M122 670 q-6 -70 26 -118" fill="none" stroke="#7e8068" stroke-width="3.5" stroke-linecap="round"/><path d="M122 670 q2 -58 -18 -98" fill="none" stroke="#7e8068" stroke-width="3" stroke-linecap="round"/><ellipse cx="148" cy="552" rx="7" ry="16" fill="#7e8068" transform="rotate(24 148 552)"/><ellipse cx="136" cy="594" rx="6" ry="14" fill="#7e8068" transform="rotate(-18 136 594)" opacity="0.85"/><ellipse cx="104" cy="576" rx="6" ry="14" fill="#7e8068" transform="rotate(-30 104 576)" opacity="0.9"/></g>
<ellipse cx="400" cy="780" rx="332.8" ry="28.288" fill="#2b231a" opacity="0.32" filter="url(#soft)"/><ellipse cx="400" cy="780" rx="206.336" ry="16.64" fill="#241d15" opacity="0.256" filter="url(#softer)"/><rect x="656" y="186" width="16" height="592" rx="4" fill="#000000" opacity="0.18"/><rect x="140" y="180" width="520" height="600" rx="8" fill="#2e2b27"/><rect x="140" y="180" width="520" height="600" rx="8" fill="url(#glow)" opacity="0.3"/><rect x="140" y="244" width="520" height="2.5" fill="#000000" opacity="0.12"/><text x="400" y="222" text-anchor="middle" font-family="'Helvetica Neue', Helvetica, Arial, sans-serif" font-size="11" font-weight="600" letter-spacing="3.5" fill="#d3ac8c">A CATALOG TABLETOP ORIGINAL</text><ellipse cx="370" cy="420" rx="120" ry="96" fill="#d3ac8c" opacity="0.55" filter="url(#soft)"/><ellipse cx="444" cy="450" rx="104" ry="86" fill="#b07a52" opacity="0.3" filter="url(#soft)"/><circle cx="438" cy="396" r="42" fill="#d3ac8c" opacity="0.9"/><path d="M270 510 l74 -108 l46 62 l34 -44 l60 90 Z" fill="none" stroke="#e9e2d2" stroke-width="3.5" stroke-linejoin="round"/><text x="400" y="622" text-anchor="middle" font-family="Georgia, 'Times New Roman', serif" font-size="40" font-weight="400" letter-spacing="7" fill="#e9e2d2">QUARRY</text><line x1="370" y1="656" x2="430" y2="656" stroke="#d3ac8c" stroke-width="2"/><text x="400" y="736" text-anchor="middle" font-family="'Helvetica Neue', Helvetica, Arial, sans-serif" font-size="13" font-weight="500" letter-spacing="3" fill="#e9e2d2">ANDERS LINDHOLM</text>
<rect width="800" height="1000" fill="url(#vignette)"/>
</svg>