<svg xmlns="http://www.w3.org/2000/svg" viewBox="0 0 800 1000" width="800" height="1000">
<defs>
<linearGradient id="bg" x1="0" y1="0" x2="0" y2="1">
<stop offset="0" stop-color="#f2eee8"/>
<stop offset="1" stop-color="#e4ded4"/>
</linearGradient>
<linearGradient id="table" x1="0" y1="0" x2="0" y2="1">
<stop offset="0" stop-color="#c8a87e"/>
<stop offset="1" stop-color="#a78759"/>
</linearGradient>
<radialGradient id="glow" cx="0.5" cy="0.42" r="0.55">
<stop offset="0" stop-color="#ffffff" stop-opacity="0.5"/>
<stop offset="1" stop-color="#ffffff" stop-opacity="0"/>
</radialGradient>
<radialGradient id="vignette" cx="0.5" cy="0.46" r="0.85">
<stop offset="0.62" stop-color="#2b251d" stop-opacity="0"/>
<stop offset="1" stop-color="#2b251d" stop-opacity="0.11"/>
</radialGradient>
<filter id="soft" x="-60%" y="-60%" width="220%" height="220%"><feGaussianBlur in="SourceGraphic" stdDeviation="18"/></filter>
<filter id="softer" x="-60%" y="-60%" width="220%" height="220%"><feGaussianBlur in="SourceGraphic" stdDeviation="34"/></filter>
</defs>
<rect width="800" height="1000" fill="url(#bg)"/>
<rect width="800" height="1000" fill="url(#glow)"/>
<rect x="0" y="768" width="800" height="1000" fill="url(#table)"/>
<rect x="0" y="768" width="800" height="3" fill="#ffffff" opacity="0.28"/>

<ellipse cx="400" cy="780" rx="332.8" ry="28.288" fill="#2b231a" opacity="0.32" filter="url(#soft)"/><ellipse cx="400" cy="780" rx="206.336" ry="16.64" fill="#241d15" opacity="0.256" filter="url(#softer)"/><rect x="656" y="186" width="16" height="592" rx="4" fill="#000000" opacity="0.18"/><rect x="140" y="180" width="520" height="600" rx="8" fill="#ddcfb4"/><rect x="140" y="180" width="520" height="600" rx="8" fill="url(#glow)" opacity="0.3"/><rect x="140" y="244" width="520" height="2.5" fill="#000000" opacity="0.12"/><text x="400" y="222" text-anchor="middle" font-family="'Helvetica Neue', Helvetica, Arial, sans-serif" font-size="11" font-weight="600" letter-spacing="3.5" fill="#7c6a4c">A CATALOG TABLETOP ORIGINAL</text><ellipse cx="370" cy="420" rx="120" ry="96" fill="#c0ad8b" opacity="0.55" filter="url(#soft)"/><ellipse cx="444" cy="450" rx="104" ry="86" fill="#7c6a4c" opacity="0.3" filter="url(#soft)"/><path d="M400 354 c-26 0 -38 22 -34 42 c3 14 12 22 12 22 c-26 8 -50 26 -56 56 c-2 12 6 18 16 18 l124 0 c10 0 18 -6 16 -18 c-6 -30 -30 -48 -56 -56 c0 0 9 -8 12 -22 c4 -20 -8 -42 -34 -42 Z" fill="#7c6a4c"/><text x="400" y="622" text-anchor="middle" font-family="Georgia, 'Times New Roman', serif" font-size="40" font-weight="400" letter-spacing="7" fill="#33302b">STACKS</text><line x1="370" y1="656" x2="430" y2="656" stroke="#7c6a4c" stroke-width="2"/><text x="400" y="736" text-anchor="middle" font-family="'Helvetica Neue', Helvetica, Arial, sans-serif" font-size="13" font-weight="500" letter-spacing="3" fill="#33302b">NORA QUIST</text>
<rect width="800" height="1000" fill="url(#vignette)"/>
</svg>